<svg version="1.2" xmlns="http://www.w3.org/2000/svg" viewBox="0 0 300 70" width="300" height="70">
	<title>Nuevo proyecto</title>
	<style>
		.s0 { fill: #ffce6f } 
	</style>
	<path id="Amazing Bake" class="s0" aria-label="Amazing Bake"  d="m35.6 36.2l-5.4-14.5-5.4 14.5zm-18.7 10.8l11.1-29.2h4.5l11.1 29.2h-4.1l-2.6-7.5h-13.2l-2.6 7.5zm17.7-10.8l-5.4-14.5-5.4 14.5zm-18.7 10.8l11.1-29.2h4.5l11.1 29.2h-4.1l-2.6-7.5h-13.2l-2.6 7.5zm32 0v-22.2h4.5l5.6 15.1 5.7-15.1h4.5v22.2h-2.9v-19.5l-5.8 15.2h-3l-5.7-15.2v19.5zm-0.8 0v-22.2h4.5l5.6 15.1 5.7-15.1h4.5v22.2h-2.9v-19.5l-5.8 15.2h-3l-5.7-15.2v19.5zm39.6-8.2l-4.1-11-4 11zm-14.3 8.2l8.5-22.2h3.4l8.4 22.2h-3.1l-2-5.7h-10l-2 5.7zm13.4-8.2l-4.1-11-4 11zm-14.3 8.2l8.5-22.2h3.4l8.5 22.2h-3.2l-2-5.7h-10l-2 5.7zm24.2-19.6v-2.6h17.4v2.3l-14 17.4h14.3v2.5h-18.1v-2.3l14-17.3zm-0.8 0v-2.6h17.4v2.3l-14 17.4h14.4v2.5h-18.1v-2.3l14-17.3zm24 19.6v-22.2h3v22.2zm-0.8 0v-22.2h3v22.2zm10.8 0v-22.2h4.1l9.8 18.6v-18.6h2.9v22.2h-4l-9.9-18.5v18.5zm-0.8 0v-22.2h4.1l9.8 18.6v-18.6h2.9v22.2h-4l-9.9-18.5v18.5zm39.8-3.2v-5.9h-4.9v-2.5h7.8v9.5q-1.7 1.3-3.8 1.9-2.1 0.6-4.5 0.6-5.2 0-8.1-3-2.9-3-2.9-8.5 0-5.4 2.9-8.4 2.9-3.1 8.1-3.1 2.2 0 4.2 0.6 1.9 0.5 3.6 1.5v3.2q-1.7-1.4-3.6-2.1-1.8-0.7-3.9-0.7-4.1 0-6.1 2.3-2.1 2.2-2.1 6.7 0 4.5 2.1 6.8 2 2.3 6.1 2.3 1.6 0 2.8-0.3 1.3-0.3 2.3-0.9zm-0.8 0v-5.9h-4.9v-2.5h7.8v9.5q-1.7 1.3-3.8 1.9-2.1 0.6-4.5 0.6-5.2 0-8.1-3-2.9-3-2.9-8.5 0-5.4 2.9-8.4 2.9-3.1 8.1-3.1 2.2 0 4.2 0.6 1.9 0.5 3.6 1.5v3.2q-1.7-1.4-3.6-2.1-1.8-0.7-3.9-0.7-4.1 0-6.1 2.3-2.1 2.2-2.1 6.7 0 4.5 2.1 6.8 2 2.3 6.1 2.3 1.6 0 2.8-0.3 1.3-0.3 2.3-0.9zm35.4-10.7h-6.3v10.7h6.3q3.2 0 4.7-1.4 1.6-1.3 1.6-4 0-2.7-1.6-4-1.5-1.3-4.7-1.3zm-0.5-12h-5.8v8.8h5.8q2.9 0 4.3-1.1 1.5-1.1 1.5-3.3 0-2.2-1.5-3.3-1.4-1.1-4.3-1.1zm-9.7 25.9v-29.2h10q4.6 0 7 1.9 2.4 1.9 2.4 5.3 0 2.7-1.2 4.3-1.3 1.6-3.7 2 2.9 0.6 4.5 2.6 1.6 2 1.6 4.9 0 3.9-2.6 6.1-2.7 2.1-7.6 2.1zm9.2-13.9h-6.3v10.7h6.3q3.2 0 4.8-1.4 1.5-1.3 1.5-4 0-2.7-1.5-4-1.6-1.3-4.8-1.3zm-0.4-12h-5.9v8.8h5.9q2.9 0 4.3-1.1 1.4-1.1 1.4-3.3 0-2.2-1.4-3.3-1.4-1.1-4.3-1.1zm-9.8 25.9v-29.2h10.1q4.5 0 6.9 1.9 2.4 1.9 2.4 5.3 0 2.7-1.2 4.3-1.3 1.6-3.7 2 2.9 0.6 4.5 2.6 1.7 2 1.7 4.9 0 3.9-2.7 6.1-2.7 2.1-7.6 2.1zm40-8.2l-4-11-4.1 11zm-14.2 8.2l8.4-22.2h3.4l8.5 22.2h-3.2l-2-5.7h-10l-2 5.7zm13.5-8.2l-4.1-11-4.1 11zm-14.2 8.2l8.4-22.2h3.4l8.5 22.2h-3.1l-2.1-5.7h-10l-2 5.7zm25.5 0v-22.2h3v9.4l9.9-9.4h3.9l-11 10.4 11.7 11.8h-3.9l-10.6-10.7v10.7zm-0.9 0v-22.2h3v9.4l10-9.4h3.9l-11 10.4 11.7 11.8h-3.9l-10.7-10.7v10.7zm21.9 0v-22.2h14v2.6h-11v6.5h10.5v2.5h-10.5v8.1h11.2v2.5zm-0.8 0v-22.2h14.1v2.6h-11.1v6.5h10.6v2.5h-10.6v8.1h11.3v2.5z"/>
</svg>